<svg width="41" height="17" viewBox="0 0 41 17" fill="none" xmlns="http://www.w3.org/2000/svg">
<path d="M23.9751 4.79361C23.9751 7.20695 22.2722 8.92869 19.8935 8.92869H17.6524C17.6154 8.92924 17.5793 8.94046 17.5485 8.96099C17.5177 8.98152 17.4935 9.01049 17.4788 9.04444C17.4693 9.06688 17.4644 9.09097 17.4643 9.11533V12.2868C17.4643 12.3114 17.4594 12.3358 17.4499 12.3586C17.4405 12.3813 17.4266 12.402 17.4091 12.4193C17.3916 12.4367 17.3709 12.4504 17.3481 12.4597C17.3253 12.469 17.3008 12.4736 17.2762 12.4735H15.7078C15.6579 12.4735 15.6101 12.4536 15.5748 12.4184C15.5395 12.3831 15.5197 12.3353 15.5197 12.2854V0.848067C15.5191 0.810804 15.5299 0.774241 15.5506 0.743232C15.5712 0.712223 15.6008 0.688234 15.6355 0.674446C15.6584 0.664858 15.683 0.659939 15.7078 0.659977H19.9037C22.2722 0.659977 23.9751 2.38027 23.9751 4.79361ZM22.019 4.79361C22.019 3.40753 21.0669 2.39474 19.7763 2.39474H17.6524C17.6277 2.39474 17.6032 2.39961 17.5804 2.40906C17.5576 2.41851 17.5368 2.43237 17.5194 2.44983C17.5019 2.4673 17.4881 2.48803 17.4786 2.51085C17.4692 2.53367 17.4643 2.55813 17.4643 2.58283V6.9957C17.464 7.02045 17.4687 7.045 17.4782 7.06787C17.4876 7.09074 17.5016 7.11147 17.5193 7.12881C17.5367 7.14634 17.5575 7.16022 17.5803 7.16966C17.6032 7.1791 17.6277 7.1839 17.6524 7.18379H19.7763C21.0669 7.19103 22.019 6.17824 22.019 4.79361ZM24.441 10.2786C24.4245 9.90792 24.5016 9.53906 24.6652 9.20604C24.8288 8.87301 25.0736 8.58656 25.3771 8.3731C25.9891 7.9159 26.9455 7.67862 28.3504 7.62942L29.845 7.57734V7.13894C29.845 6.26071 29.2518 5.89032 28.2997 5.89032C27.3477 5.89032 26.7444 6.22454 26.6069 6.77289C26.5952 6.81141 26.5712 6.84502 26.5385 6.86855C26.5058 6.89207 26.4663 6.90421 26.4261 6.90311H24.9474C24.9067 6.90363 24.8669 6.89094 24.834 6.86694C24.8012 6.84294 24.777 6.80892 24.7651 6.77C24.7572 6.74423 24.7553 6.71705 24.7593 6.69042C24.9792 5.39116 26.0672 4.40441 28.3677 4.40441C30.8158 4.40441 31.6998 5.53729 31.6998 7.69743V12.2868C31.6996 12.3116 31.6945 12.3362 31.6848 12.359C31.6751 12.3819 31.661 12.4026 31.6432 12.4199C31.6254 12.4373 31.6044 12.4509 31.5814 12.4601C31.5583 12.4693 31.5337 12.4738 31.5088 12.4735H30.0186C29.9687 12.4735 29.9209 12.4536 29.8856 12.4184C29.8503 12.3831 29.8305 12.3353 29.8305 12.2854V11.9439C29.831 11.9156 29.8228 11.8878 29.807 11.8643C29.7912 11.8407 29.7686 11.8226 29.7422 11.8122C29.7161 11.802 29.6876 11.7995 29.6601 11.8052C29.6326 11.8108 29.6074 11.8243 29.5874 11.8441C29.1389 12.3273 28.4184 12.676 27.2623 12.676C25.5623 12.676 24.441 11.7978 24.441 10.2786ZM29.845 9.28461V8.92869L27.9076 9.02997C26.8876 9.08205 26.2944 9.50164 26.2944 10.2106C26.2944 10.853 26.8384 11.2089 27.7904 11.2089C29.0825 11.2089 29.845 10.5144 29.845 9.28461ZM33.1959 15.9401V14.6104C33.1962 14.5826 33.2028 14.5551 33.215 14.5301C33.2273 14.5051 33.245 14.4831 33.2668 14.4658C33.2884 14.4483 33.3136 14.4357 33.3406 14.4289C33.3676 14.4222 33.3957 14.4214 33.423 14.4267C33.6516 14.4687 33.8831 14.4904 34.1161 14.4904C34.5151 14.5122 34.9098 14.3991 35.2366 14.1691C35.5634 13.9392 35.8032 13.6059 35.9174 13.2229L36.0143 12.9176C36.0288 12.8764 36.0288 12.8315 36.0143 12.7903L32.9108 4.87463C32.8928 4.83119 32.8918 4.78259 32.9078 4.7384C32.9239 4.69421 32.956 4.65765 32.9976 4.6359C33.0253 4.62133 33.0561 4.61387 33.0873 4.6142H34.5921C34.6307 4.6143 34.6684 4.62611 34.7001 4.64807C34.7319 4.67002 34.7563 4.70109 34.77 4.73718L36.8766 10.3206C36.8897 10.358 36.9141 10.3905 36.9466 10.4133C36.979 10.4362 37.0178 10.4483 37.0575 10.4479C37.0971 10.4478 37.1357 10.4356 37.168 10.4128C37.2004 10.39 37.225 10.3578 37.2384 10.3206L39.0686 4.7531C39.081 4.71471 39.1054 4.68133 39.1383 4.65789C39.1711 4.63444 39.2106 4.62217 39.2509 4.62288H40.8077C40.8544 4.62316 40.8995 4.64029 40.9346 4.67112C40.9697 4.70196 40.9924 4.74443 40.9987 4.79072C41.0022 4.82159 40.9982 4.85285 40.9871 4.88187L37.6666 13.6729C36.9027 15.7173 35.5933 16.2381 34.1508 16.2381C33.877 16.2457 33.6036 16.2135 33.3391 16.1427C33.2947 16.1318 33.2558 16.1053 33.2292 16.0682C33.2027 16.031 33.1918 15.9856 33.1959 15.9401ZM5.43809 0.000216967C3.46387 -0.0145383 1.55826 0.7238 0.109352 2.06486C0.0476978 2.12093 0.00921593 2.19802 0.00145365 2.28099C-0.00630863 2.36397 0.0172083 2.44685 0.0673932 2.51338L0.961545 3.72729C0.990517 3.76822 1.02815 3.80227 1.07177 3.82701C1.11539 3.85175 1.16392 3.86659 1.21392 3.87045C1.26392 3.87432 1.31415 3.86713 1.36106 3.84939C1.40796 3.83164 1.45038 3.80379 1.4853 3.7678C2.00606 3.25069 2.62451 2.84238 3.30463 2.56666C3.98475 2.29093 4.71294 2.15331 5.44677 2.1618C8.51409 2.1618 10.1158 4.4536 10.1158 6.71936C10.1158 9.17899 8.43307 10.9123 6.01394 10.9456C4.14461 10.9456 2.73538 9.71577 2.73538 8.08952C2.73698 7.67829 2.83044 7.27262 3.00892 6.90214C3.1874 6.53167 3.4464 6.20574 3.76698 5.94819C3.83524 5.8922 3.87857 5.81148 3.88752 5.72365C3.89647 5.63582 3.8703 5.54802 3.81473 5.47941L2.87428 4.30024C2.84588 4.26398 2.81045 4.23385 2.77011 4.21164C2.72977 4.18943 2.68535 4.17562 2.63953 4.17102C2.59371 4.16643 2.54743 4.17115 2.50349 4.1849C2.45954 4.19865 2.41882 4.22115 2.3838 4.25104C1.80781 4.71308 1.34218 5.29783 1.02087 5.96266C0.700699 6.62601 0.534046 7.35295 0.533278 8.08952C0.533278 10.8892 2.92781 13.084 5.99513 13.1014H6.03853C9.68025 13.0551 12.3135 10.3755 12.3135 6.71357C12.3135 3.46251 9.90162 0.000216967 5.43809 0.000216967Z" fill="white"/>
</svg>
