<svg width="16" height="20" viewBox="0 0 16 20" fill="none" xmlns="http://www.w3.org/2000/svg">
<path d="M14.5365 4.89733C14.8302 3.41329 14.5365 2.37446 13.6555 1.48404C12.7745 0.445212 11.1593 0 9.10368 0H3.0835C2.643 0 2.34934 0.296808 2.2025 0.74202L0 15.7308C0 16.0276 0.146834 16.3244 0.440501 16.3244H4.40501L4.99234 11.2787L7.63534 8.01381L14.5365 4.89733Z" fill="#003087"/>
<path d="M14.5367 4.89594L14.243 5.19275C13.5088 9.34805 11.0126 10.8321 7.48864 10.8321H5.87348C5.43297 10.8321 5.13931 11.1289 4.99247 11.5741L4.11147 17.3619L3.81781 18.8459C3.81781 19.1427 3.96464 19.4395 4.25831 19.4395H7.34181C7.78231 19.4395 8.07598 19.1427 8.07598 18.8459V18.6975L8.66331 15.1358V14.9874C8.66331 14.6906 9.10381 14.3938 9.39748 14.3938H9.83798C12.9215 14.3938 15.2708 13.2066 15.8582 9.64486C16.1518 8.16082 16.005 6.97359 15.2708 6.08317C15.124 5.34115 14.8303 5.04434 14.5367 4.89594Z" fill="#3086C8"/>
<path d="M13.6552 4.60055C13.5084 4.45215 13.3615 4.45215 13.2147 4.45215C13.0679 4.45215 12.921 4.45215 12.7742 4.30374C12.3337 4.15534 11.7464 4.15534 11.159 4.15534H6.75403C6.60719 4.15534 6.46036 4.15534 6.46036 4.30374C6.16669 4.45215 6.01986 4.60055 6.01986 4.89736L4.99202 11.4271V11.5755C4.99202 11.1303 5.43252 10.8335 5.87303 10.8335H7.78186C11.4527 10.8335 13.802 9.34947 14.5362 5.19417V4.89736C14.3894 4.74895 14.0957 4.60055 13.802 4.60055H13.6552Z" fill="#012169"/>
</svg>
