<svg width="46" height="24" viewBox="0 0 46 24" fill="none" xmlns="http://www.w3.org/2000/svg">
<path fill-rule="evenodd" clip-rule="evenodd" d="M0 0H45.6V1.84615H0V0ZM0 3.69231H45.6V5.53846H0V3.69231ZM0 7.38461H45.6V9.23077H0V7.38461ZM0 11.0769H45.6V12.9231H0V11.0769ZM0 14.7692H45.6V16.6154H0V14.7692ZM0 18.4615H45.6V20.3077H0V18.4615ZM0 22.1538H45.6V24H0V22.1538Z" fill="#BD3D44"/>
<path fill-rule="evenodd" clip-rule="evenodd" d="M0 1.84568H45.6V3.69184H0V1.84568ZM0 5.53799H45.6V7.38414H0V5.53799ZM0 9.2303H45.6V11.0765H0V9.2303ZM0 12.9226H45.6V14.7688H0V12.9226ZM0 16.6149H45.6V18.4611H0V16.6149ZM0 20.3072H45.6V22.1534H0V20.3072Z" fill="white"/>
<path fill-rule="evenodd" clip-rule="evenodd" d="M0 0H18.24V12.9231H0V0Z" fill="#192F5D"/>
<path fill-rule="evenodd" clip-rule="evenodd" d="M1.51317 0.553705L1.69776 1.07059H2.2147L1.79006 1.38446L1.95623 1.88293L1.51317 1.56905L1.107 1.88293L1.27317 1.38446L0.83007 1.07059H1.38399L1.51317 0.553705ZM4.55931 0.553705L4.72548 1.07059H5.26084L4.81778 1.38446L5.00237 1.88293L4.55931 1.56905L4.11626 1.88293L4.30085 1.38446L3.85779 1.07059H4.39314L4.55931 0.553705ZM7.60545 0.553705L7.77162 1.07059H8.30698L7.86392 1.38446L8.04856 1.88293L7.60545 1.56905L7.1624 1.88293L7.34699 1.38446L6.90393 1.07059H7.43933L7.60545 0.553705ZM10.6332 0.553705L10.8178 1.07059H11.3347L10.9101 1.38446L11.0762 1.88293L10.6332 1.56905L10.2085 1.88293L10.3747 1.38446L9.9316 1.07059H10.4855L10.6332 0.553705ZM13.6793 0.553705L13.8454 1.07059H14.3808L13.9378 1.38446L14.1224 1.88293L13.6608 1.56905L13.2362 1.88293L13.4024 1.38446L12.9593 1.07059H13.4947L13.6793 0.553705ZM16.7255 0.553705L16.8916 1.07059H17.427L16.9839 1.38446L17.1685 1.88293L16.7255 1.56905L16.2824 1.88293L16.467 1.38446L16.0239 1.07059H16.5593L16.7255 0.553705ZM3.04545 1.84599L3.21162 2.36292H3.74702L3.30392 2.67675L3.48856 3.17521L3.04545 2.86139L2.6024 3.17521L2.78699 2.67675L2.34393 2.36292H2.87933L3.04545 1.84599ZM6.07317 1.84599L6.25776 2.36292H6.7747L6.35006 2.67675L6.51623 3.17521L6.07317 2.86139L5.64854 3.17521L5.81471 2.67675L5.3716 2.36292H5.92547L6.07317 1.84599ZM9.11931 1.84599L9.28548 2.36292H9.82084L9.37778 2.67675L9.56237 3.17521L9.11931 2.86139L8.67621 3.17521L8.86085 2.67675L8.41779 2.36292H8.95314L9.11931 1.84599ZM12.1655 1.84599L12.3316 2.36292H12.867L12.4239 2.67675L12.6086 3.17521L12.1655 2.86139L11.7224 3.17521L11.907 2.67675L11.4639 2.36292H11.9993L12.1655 1.84599ZM15.1932 1.84599L15.3778 2.36292H15.8762L15.4516 2.67675L15.6178 3.17521L15.1747 2.86139L14.7501 3.17521L14.9162 2.67675L14.4731 2.36292H15.027L15.1932 1.84599ZM1.53159 3.13832L1.6793 3.65521H2.23316L1.79006 3.96908L1.95623 4.46754L1.51317 4.15367L1.107 4.46754L1.27317 3.96908L0.83007 3.65521H1.38399L1.53159 3.13832ZM4.55931 3.13832L4.72548 3.65521H5.26084L4.83625 3.96908L5.00237 4.46754L4.55931 4.15367L4.13468 4.46754L4.30085 3.96908L3.85779 3.65521H4.39314L4.55931 3.13832ZM7.60545 3.13832L7.77162 3.65521H8.30698L7.86392 3.96908L8.04856 4.46754L7.60545 4.15367L7.1624 4.46754L7.34699 3.96908L6.90393 3.65521H7.43933L7.60545 3.13832ZM10.6332 3.13832L10.8178 3.65521H11.3347L10.9101 3.96908L11.0762 4.46754L10.6332 4.15367L10.2085 4.46754L10.3747 3.96908L9.9316 3.65521H10.4855L10.6332 3.13832ZM13.6793 3.13832L13.8454 3.65521H14.3808L13.9562 3.96908L14.1224 4.46754L13.6793 4.15367L13.2547 4.46754L13.4208 3.96908L12.9778 3.65521H13.5131L13.6793 3.13832ZM16.7255 3.13832L16.8916 3.65521H17.427L16.9839 3.96908L17.1685 4.46754L16.7255 4.15367L16.2824 4.46754L16.467 3.96908L16.0239 3.65521H16.5593L16.7255 3.13832ZM3.04545 4.43056L3.21162 4.94749H3.74702L3.30392 5.26131L3.48856 5.75978L3.04545 5.44595L2.6024 5.75978L2.78699 5.26131L2.34393 4.94749H2.87933L3.04545 4.43056ZM6.07317 4.43056L6.25776 4.94749H6.7747L6.35006 5.26131L6.51623 5.75978L6.07317 5.44595L5.64854 5.75978L5.81471 5.26131L5.3716 4.94749H5.92547L6.07317 4.43056ZM9.11931 4.43056L9.28548 4.94749H9.82084L9.39625 5.26131L9.56237 5.75978L9.11931 5.44595L8.69468 5.75978L8.86085 5.26131L8.41779 4.94749H8.95314L9.11931 4.43056ZM12.1655 4.43056L12.3316 4.94749H12.867L12.4239 5.26131L12.6086 5.75982L12.1655 5.446L11.7224 5.75982L11.907 5.26136L11.4639 4.94754H11.9993L12.1655 4.43056ZM15.1932 4.43056L15.3778 4.94749H15.8762L15.4516 5.26131L15.6178 5.75978L15.1747 5.44595L14.7501 5.75978L14.9162 5.26131L14.4731 4.94749H15.027L15.1932 4.43056ZM1.53159 5.72289L1.6793 6.23977H2.23316L1.79006 6.55364L1.95623 7.05211L1.51317 6.73824L1.107 7.05211L1.27317 6.55364L0.83007 6.23977H1.38399L1.53159 5.72289ZM4.55931 5.72289L4.72548 6.23977H5.26084L4.83625 6.55364L5.00237 7.05211L4.55931 6.73824L4.13468 7.05211L4.30085 6.55364L3.85779 6.23977H4.39314L4.55931 5.72289ZM7.60545 5.72289L7.77162 6.23977H8.30698L7.86392 6.55364L8.04856 7.05211L7.60545 6.73824L7.1624 7.05211L7.34699 6.55364L6.90393 6.23977H7.43933L7.60545 5.72289ZM10.6332 5.72289L10.8178 6.23977H11.3347L10.9101 6.55364L11.0762 7.05211L10.6332 6.73824L10.2085 7.05211L10.3747 6.55364L9.9316 6.23977H10.4855L10.6332 5.72289ZM13.6793 5.72289L13.8454 6.23977H14.3808L13.9562 6.55364L14.1224 7.05211L13.6793 6.73824L13.2547 7.05211L13.4208 6.55364L12.9778 6.23977H13.5131L13.6793 5.72289ZM16.7255 5.72289L16.8916 6.23977H17.427L16.9839 6.55364L17.1685 7.05211L16.7255 6.73824L16.2824 7.05211L16.467 6.55364L16.0239 6.23977H16.5593L16.7255 5.72289ZM3.04545 7.01517L3.21162 7.5321H3.74702L3.30392 7.84593L3.48856 8.34439L3.04545 8.03057L2.6024 8.34439L2.78699 7.84593L2.34393 7.5321H2.87933L3.04545 7.01517ZM6.07317 7.01517L6.25776 7.5321H6.7747L6.35006 7.84593L6.51623 8.34439L6.07317 8.03057L5.64854 8.34439L5.81471 7.84593L5.3716 7.5321H5.92547L6.07317 7.01517ZM9.11931 7.01517L9.28548 7.5321H9.82084L9.39625 7.84593L9.56237 8.34439L9.11931 8.03057L8.69468 8.34439L8.86085 7.84593L8.41779 7.5321H8.95314L9.11931 7.01517ZM12.1655 7.01517L12.3316 7.5321H12.867L12.4239 7.84593L12.6086 8.34444L12.1655 8.03061L11.7224 8.34444L11.907 7.84598L11.4639 7.53215H11.9993L12.1655 7.01517ZM15.1932 7.01517L15.3778 7.5321H15.8762L15.4516 7.84593L15.6178 8.34439L15.1747 8.03057L14.7501 8.34439L14.9162 7.84593L14.4731 7.5321H15.027L15.1932 7.01517ZM1.53159 8.3075L1.6793 8.82439H2.23316L1.79006 9.13826L1.95623 9.63672L1.51317 9.32285L1.107 9.63672L1.27317 9.13826L0.83007 8.82439H1.38399L1.53159 8.3075ZM4.55931 8.3075L4.72548 8.82439H5.26084L4.83625 9.13826L5.00237 9.63672L4.55931 9.32285L4.13468 9.63672L4.30085 9.13826L3.85779 8.82439H4.39314L4.55931 8.3075ZM7.60545 8.3075L7.77162 8.82439H8.30698L7.86392 9.13826L8.04856 9.63672L7.60545 9.32285L7.1624 9.63672L7.34699 9.13826L6.90393 8.82439H7.43933L7.60545 8.3075ZM10.6332 8.3075L10.8178 8.82439H11.3347L10.9101 9.13826L11.0762 9.63672L10.6332 9.32285L10.2085 9.63672L10.3747 9.13826L9.9316 8.82439H10.4855L10.6332 8.3075ZM13.6793 8.3075L13.8454 8.82439H14.3808L13.9562 9.13826L14.1224 9.63672L13.6793 9.32285L13.2547 9.63672L13.4208 9.13826L12.9778 8.82439H13.5131L13.6793 8.3075ZM16.7255 8.3075L16.8916 8.82439H17.427L16.9839 9.13826L17.1685 9.63672L16.7255 9.32285L16.2824 9.63672L16.467 9.13826L16.0239 8.82439H16.5593L16.7255 8.3075ZM3.04545 9.59983L3.21162 10.1168H3.74702L3.30392 10.4306L3.48856 10.9291L3.04545 10.6152L2.6024 10.9291L2.78699 10.4306L2.34393 10.1168H2.87933L3.04545 9.59983ZM6.07317 9.59983L6.25776 10.1168H6.7747L6.35006 10.4306L6.51623 10.9291L6.07317 10.6152L5.64854 10.9291L5.81471 10.4306L5.3716 10.1168H5.92547L6.07317 9.59983ZM9.11931 9.59983L9.28548 10.1168H9.82084L9.39625 10.4306L9.56237 10.9291L9.11931 10.6152L8.69468 10.9291L8.86085 10.4306L8.41779 10.1168H8.95314L9.11931 9.59983ZM12.1655 9.59983L12.3316 10.1168H12.867L12.4239 10.4306L12.6086 10.9291L12.1655 10.6153L11.7224 10.9291L11.907 10.4306L11.4639 10.1168H11.9993L12.1655 9.59983ZM15.1932 9.59983L15.3778 10.1168H15.8762L15.4516 10.4306L15.6178 10.9291L15.1747 10.6152L14.7501 10.9291L14.9162 10.4306L14.4731 10.1168H15.027L15.1932 9.59983ZM1.53159 10.8922L1.6793 11.409H2.23316L1.79006 11.7229L1.95623 12.2214L1.51317 11.9075L1.107 12.2214L1.27317 11.7229L0.83007 11.409H1.38399L1.53159 10.8922ZM4.55931 10.8922L4.72548 11.409H5.26084L4.83625 11.7229L5.00237 12.2214L4.55931 11.9075L4.13468 12.2214L4.30085 11.7229L3.85779 11.409H4.39314L4.55931 10.8922ZM7.60545 10.8922L7.77162 11.409H8.30698L7.86392 11.7229L8.04856 12.2214L7.60545 11.9075L7.1624 12.2214L7.34699 11.7229L6.90393 11.409H7.43933L7.60545 10.8922ZM10.6332 10.8922L10.8178 11.409H11.3347L10.9101 11.7229L11.0762 12.2214L10.6332 11.9075L10.2085 12.2214L10.3747 11.7229L9.9316 11.409H10.4855L10.6332 10.8922ZM13.6793 10.8922L13.8454 11.409H14.3808L13.9562 11.7229L14.1224 12.2214L13.6793 11.9075L13.2547 12.2214L13.4208 11.7229L12.9778 11.409H13.5131L13.6793 10.8922ZM16.7255 10.8922L16.8916 11.409H17.427L16.9839 11.7229L17.1685 12.2214L16.7255 11.9075L16.2824 12.2214L16.467 11.7229L16.0239 11.409H16.5593L16.7255 10.8922Z" fill="white"/>
</svg>
