<svg width="40" height="16" viewBox="0 0 40 16" fill="none" xmlns="http://www.w3.org/2000/svg">
<path d="M18.9235 7.75703V12.4139H17.442V0.917325H21.3582C21.8274 0.909382 22.2935 0.994261 22.7298 1.16708C23.1661 1.33991 23.564 1.59727 23.9005 1.92436C24.2192 2.22181 24.4763 2.57916 24.6568 2.97599C24.8374 3.37281 24.938 3.80134 24.9529 4.23706C24.9677 4.67279 24.8966 5.10717 24.7435 5.51538C24.5904 5.92359 24.3583 6.29763 24.0606 6.61611L23.9005 6.78492C23.2165 7.43542 22.3026 7.78905 21.3582 7.76577L18.9235 7.75703ZM18.9235 2.32601V6.38327H21.3945C21.9432 6.40073 22.4729 6.18681 22.8571 5.79535C23.1319 5.50891 23.3164 5.148 23.3877 4.75751C23.459 4.36702 23.4139 3.96418 23.2581 3.59911C23.1022 3.23405 22.8424 2.92286 22.5111 2.70427C22.1798 2.48567 21.7915 2.36931 21.3945 2.36967L18.9235 2.32601ZM28.3594 4.2877C29.3053 4.24404 30.2309 4.56129 30.9469 5.17977C31.5945 5.80553 31.9394 6.67869 31.8928 7.57949V12.4313H30.4826V11.3166H30.4113C30.1584 11.7347 29.8008 12.0796 29.3739 12.3172C28.9469 12.5548 28.4653 12.6769 27.9767 12.6714C27.1791 12.6973 26.4012 12.4201 25.7996 11.8958C25.5146 11.6633 25.2861 11.369 25.1316 11.0352C24.977 10.7014 24.9004 10.3368 24.9075 9.96902C24.8907 9.59734 24.9629 9.22702 25.1181 8.88886C25.2732 8.5507 25.5069 8.25447 25.7996 8.0248C26.5177 7.50842 27.3867 7.24483 28.2706 7.27534C29.023 7.24624 29.7696 7.41068 30.439 7.75703V7.45434C30.4439 7.20407 30.3918 6.95597 30.2867 6.72881C30.1815 6.50164 30.0261 6.30137 29.8321 6.14315C29.4426 5.78902 28.9323 5.5974 28.406 5.60762C28.0237 5.60401 27.6468 5.69794 27.311 5.88051C26.9751 6.06309 26.6914 6.32828 26.4865 6.65104L25.184 5.83027C25.5377 5.32355 26.0152 4.91578 26.571 4.64577C27.1268 4.37575 27.7425 4.25249 28.3594 4.2877ZM26.4865 10.004C26.483 10.1924 26.5259 10.3789 26.6114 10.5469C26.6969 10.7149 26.8225 10.8593 26.9769 10.9673C27.3014 11.2235 27.7045 11.3588 28.1193 11.3501C28.7436 11.3486 29.3417 11.1027 29.787 10.6632C30.2309 10.247 30.4826 9.66633 30.4826 9.05803C29.9224 8.65975 29.2417 8.46746 28.5559 8.51377C28.0234 8.4928 27.4981 8.64272 27.057 8.94161C26.8822 9.05851 26.7388 9.2165 26.6394 9.40171C26.5399 9.58693 26.4874 9.79372 26.4865 10.004ZM40 4.54674L35.0667 15.8832H33.5416L35.4058 11.9132L32.1693 4.54674H33.7744L36.1203 10.2004L38.4036 4.54674H40Z" fill="#5F6368"/>
<path d="M12.9463 6.75241C12.9463 6.30419 12.9114 5.85597 12.8401 5.41357H6.59705V7.95591H10.1639C10.0913 8.35995 9.93784 8.74517 9.71278 9.0885C9.48773 9.43183 9.19569 9.7262 8.85415 9.95397V11.6042H10.9847C11.6325 10.9774 12.1417 10.2219 12.4796 9.38618C12.8175 8.5505 12.9765 7.6533 12.9463 6.75241Z" fill="#4285F4"/>
<path d="M6.60591 13.2074C8.21589 13.2516 9.78224 12.6807 10.9862 11.611L8.85283 9.952C8.34022 10.2807 7.75941 10.4881 7.15457 10.5586C6.54973 10.629 5.93679 10.5606 5.36236 10.3586C4.78793 10.1565 4.26714 9.82615 3.83959 9.39257C3.41203 8.95899 3.08898 8.43363 2.89499 7.85643H0.709192V9.55908C1.25615 10.6549 2.09758 11.5768 3.13912 12.2212C4.18066 12.8656 5.38113 13.2071 6.60591 13.2074Z" fill="#34A853"/>
<path d="M2.89464 7.86799C2.61784 7.04913 2.61784 6.16198 2.89464 5.34312V3.64047H0.70884C0.242845 4.5594 0 5.57522 0 6.60555C0 7.63588 0.242845 8.65171 0.70884 9.57064L2.89464 7.86799Z" fill="#FBBC04"/>
<path d="M6.60591 2.61456C7.54747 2.59736 8.45766 2.95307 9.13806 3.60414L11.0299 1.72249C9.82363 0.590319 8.22365 -0.0272266 6.56953 0.000921684C5.35201 0.00702813 4.15997 0.350189 3.12555 0.992359C2.09114 1.63453 1.25478 2.55062 0.709192 3.63906L2.89499 5.34317C3.15057 4.55745 3.64604 3.87163 4.3117 3.38217C4.97736 2.89271 5.77972 2.62426 6.60591 2.61456Z" fill="#EA4335"/>
</svg>
