<svg width="40" height="17" viewBox="0 0 40 17" fill="none" xmlns="http://www.w3.org/2000/svg">
<path d="M7.31601 2.11769C7.77203 1.54767 8.08124 0.782116 7.99971 0C7.33258 0.0331295 6.51863 0.440103 6.04702 1.01077C5.6238 1.49927 5.24931 2.29665 5.34675 3.04597C6.09574 3.11093 6.84408 2.6718 7.31601 2.11769Z" fill="black"/>
<path d="M7.99137 3.19262C6.90329 3.12766 5.97891 3.80974 5.45955 3.80974C4.93987 3.80974 4.14444 3.2251 3.28404 3.24101C2.16446 3.25725 1.12575 3.89061 0.557345 4.89749C-0.611285 6.91124 0.248786 9.8994 1.38559 11.5396C1.93742 12.3516 2.60261 13.2448 3.47892 13.2127C4.30716 13.1802 4.63164 12.6768 5.63787 12.6768C6.64377 12.6768 6.93609 13.2127 7.81273 13.1964C8.72152 13.1802 9.28992 12.3844 9.84175 11.5724C10.4751 10.6468 10.734 9.75356 10.7502 9.70484C10.734 9.6886 8.9976 9.02244 8.98136 7.02492C8.96512 5.35221 10.3449 4.55645 10.4098 4.50741C9.63063 3.35502 8.41328 3.2251 7.99104 3.19262" fill="black"/>
<path d="M18.8352 0.93108C21.1991 0.93108 22.8455 2.5606 22.8455 4.93293C22.8455 7.31371 21.1653 8.95167 18.7761 8.95167H16.1588V13.1143H14.2678V0.93108H18.8352ZM16.1588 7.36438H18.3285C19.9752 7.36438 20.9119 6.478 20.9119 4.94137C20.9119 3.40507 19.9749 2.52682 18.3369 2.52682H16.1588V7.36438Z" fill="black"/>
<path d="M23.315 10.5892C23.315 9.02721 24.5054 8.13239 26.7004 7.99727L29.0558 7.85371V7.17813C29.0558 6.19074 28.4059 5.65027 27.2493 5.65027C26.295 5.65027 25.6026 6.13974 25.4597 6.891H23.7538C23.8048 5.31248 25.2904 4.16431 27.3 4.16431C29.4612 4.16431 30.8711 5.29559 30.8711 7.05178V13.1135H29.1237V11.6529H29.0815C28.5833 12.6068 27.4854 13.2061 26.295 13.2061C24.5392 13.2061 23.315 12.1596 23.315 10.5892ZM29.0558 9.80413V9.1201L26.9537 9.25522C25.7715 9.33122 25.1556 9.77002 25.1556 10.5382C25.1556 11.2813 25.7971 11.7627 26.8017 11.7627C28.0847 11.7627 29.0558 10.9435 29.0558 9.80413Z" fill="black"/>
<path d="M32.4776 16.3722V14.9119C32.5959 14.9285 32.8827 14.9453 33.0347 14.9453C33.8704 14.9453 34.3433 14.5913 34.6304 13.679L34.7993 13.1388L31.5994 4.27407H33.5748L35.8039 11.4671H35.8461L38.0749 4.27407H40L36.6819 13.5861C35.9218 15.7223 35.0523 16.4232 33.212 16.4232C33.0685 16.4232 32.604 16.4063 32.4776 16.3722Z" fill="black"/>
</svg>
