<svg width="34" height="34" viewBox="0 0 34 34" fill="none" xmlns="http://www.w3.org/2000/svg">
<rect x="0.614429" y="0.614554" width="32.7709" height="32.7709" rx="16" fill="black" stroke="white" stroke-width="1.2"/>
<g clip-path="url(#clip0_0_65)">
<path fill-rule="evenodd" clip-rule="evenodd" d="M13.6223 8.85643C12.7503 8.89623 12.1546 9.03433 11.6326 9.23798C11.0942 9.44631 10.6378 9.7272 10.1813 10.1825C9.7272 10.6378 9.44631 11.0954 9.23798 11.6338C9.03433 12.1546 8.89623 12.7503 8.85643 13.6223C8.81664 14.4954 8.80728 14.7751 8.80728 17C8.80728 19.2249 8.81664 19.5046 8.85643 20.3777C8.89623 21.2497 9.03433 21.8454 9.23798 22.3674C9.44631 22.9058 9.7272 23.3622 10.1825 23.8187C10.6378 24.2728 11.0954 24.5537 11.6338 24.7632C12.1546 24.9657 12.7503 25.1026 13.6223 25.1436C14.4965 25.1834 14.7751 25.1927 17 25.1927C19.2249 25.1927 19.5046 25.1834 20.3777 25.1436C21.2497 25.1038 21.8454 24.9657 22.3674 24.7632C22.9058 24.5525 23.3622 24.2728 23.8187 23.8175C24.2728 23.3622 24.5537 22.9046 24.7632 22.3662C24.9657 21.8454 25.1026 21.2497 25.1436 20.3777C25.1834 19.5035 25.1927 19.2249 25.1927 17C25.1927 14.7751 25.1834 14.4954 25.1436 13.6223C25.1038 12.7503 24.9657 12.1546 24.7632 11.6326C24.5573 11.0858 24.2345 10.5905 23.8175 10.1813C23.3622 9.7272 22.9046 9.44631 22.3662 9.23798C21.8454 9.03433 21.2497 8.89623 20.3777 8.85643C19.5046 8.81664 19.2249 8.80728 17 8.80728C14.7751 8.80728 14.4954 8.81664 13.6223 8.85643ZM12.7925 17C12.7925 18.1159 13.2357 19.1861 14.0248 19.9752C14.8139 20.7643 15.8841 21.2075 17 21.2075C18.1159 21.2075 19.1861 20.7643 19.9752 19.9752C20.7643 19.1861 21.2075 18.1159 21.2075 17C21.2075 15.8841 20.7643 14.8139 19.9752 14.0248C19.1861 13.2357 18.1159 12.7925 17 12.7925C15.8841 12.7925 14.8139 13.2357 14.0248 14.0248C13.2357 14.8139 12.7925 15.8841 12.7925 17ZM17 19.7305C16.2758 19.7305 15.5813 19.4428 15.0692 18.9308C14.5572 18.4187 14.2695 17.7242 14.2695 17C14.2695 16.2758 14.5572 15.5813 15.0692 15.0692C15.5813 14.5572 16.2758 14.2695 17 14.2695C17.7242 14.2695 18.4187 14.5572 18.9308 15.0692C19.4428 15.5813 19.7305 16.2758 19.7305 17C19.7305 17.7242 19.4428 18.4187 18.9308 18.9308C18.4187 19.4428 17.7242 19.7305 17 19.7305ZM22.7349 12.3301C22.7349 12.4593 22.7095 12.5871 22.6601 12.7064C22.6107 12.8257 22.5382 12.934 22.447 13.0253C22.3557 13.1166 22.2473 13.189 22.128 13.2384C22.0087 13.2878 21.8809 13.3133 21.7518 13.3133C21.6227 13.3133 21.4948 13.2878 21.3756 13.2384C21.2563 13.189 21.1479 13.1166 21.0566 13.0253C20.9653 12.934 20.8929 12.8257 20.8435 12.7064C20.7941 12.5871 20.7687 12.4593 20.7687 12.3301C20.7687 12.0694 20.8722 11.8193 21.0566 11.635C21.241 11.4506 21.491 11.347 21.7518 11.347C22.0125 11.347 22.2626 11.4506 22.447 11.635C22.6313 11.8193 22.7349 12.0694 22.7349 12.3301Z" fill="white"/>
</g>
<defs>
<clipPath id="clip0_0_65">
<rect width="32" height="32" fill="white" transform="translate(0.614429 0.614554) scale(1.02409)"/>
</clipPath>
</defs>
</svg>
