<svg width="32" height="21" viewBox="0 0 32 21" fill="none" xmlns="http://www.w3.org/2000/svg">
<path d="M10.1818 20.3635C15.805 20.3635 20.3635 15.8049 20.3635 10.1817C20.3635 4.55851 15.805 0 10.1818 0C4.55853 0 0 4.55851 0 10.1817C0 15.8049 4.55853 20.3635 10.1818 20.3635Z" fill="#EB001B"/>
<path d="M21.8182 20.3635C27.4414 20.3635 32 15.8049 32 10.1817C32 4.55851 27.4414 0 21.8182 0C16.195 0 11.6365 4.55851 11.6365 10.1817C11.6365 15.8049 16.195 20.3635 21.8182 20.3635Z" fill="#F79E1B"/>
<path d="M20.3637 10.1801C20.3637 6.6892 18.6182 3.63468 16.0001 1.88924C13.3819 3.78014 11.6365 6.83465 11.6365 10.1801C11.6365 13.5255 13.3819 16.7255 16.0001 18.4709C18.6182 16.7255 20.3637 13.671 20.3637 10.1801Z" fill="#FF5F00"/>
</svg>
